<mxfile host="Electron" agent="Mozilla/5.0 (Windows NT 10.0; Win64; x64) AppleWebKit/537.36 (KHTML, like Gecko) draw.io/26.1.1 Chrome/132.0.6834.210 Electron/34.3.3 Safari/537.36" version="26.1.1">
  <diagram name="Student Query Sequence" id="2uLP9DMQ-WlWE7tkrJ6S">
    <mxGraphModel dx="648" dy="542" grid="1" gridSize="10" guides="1" tooltips="1" connect="1" arrows="1" fold="1" page="1" pageScale="1" pageWidth="827" pageHeight="1169" math="0" shadow="0">
      <root>
        <mxCell id="0" />
        <mxCell id="1" parent="0" />
        <mxCell id="l2tz1g2ClaedahWEiSHb-32" value="ASK QUESTION" style="edgeStyle=orthogonalEdgeStyle;rounded=0;orthogonalLoop=1;jettySize=auto;html=1;curved=0;" edge="1" parent="1" source="l2tz1g2ClaedahWEiSHb-14" target="l2tz1g2ClaedahWEiSHb-21">
          <mxGeometry relative="1" as="geometry">
            <Array as="points">
              <mxPoint x="300" y="290" />
              <mxPoint x="300" y="290" />
            </Array>
          </mxGeometry>
        </mxCell>
        <mxCell id="l2tz1g2ClaedahWEiSHb-14" value="" style="shape=umlLifeline;perimeter=lifelinePerimeter;whiteSpace=wrap;html=1;container=1;dropTarget=0;collapsible=0;recursiveResize=0;outlineConnect=0;portConstraint=eastwest;newEdgeStyle={&quot;curved&quot;:0,&quot;rounded&quot;:0};participant=umlActor;" vertex="1" parent="1">
          <mxGeometry x="220" y="200" width="20" height="930" as="geometry" />
        </mxCell>
        <mxCell id="l2tz1g2ClaedahWEiSHb-15" value="STUDENT" style="text;html=1;align=center;verticalAlign=middle;resizable=0;points=[];autosize=1;strokeColor=none;fillColor=none;" vertex="1" parent="1">
          <mxGeometry x="190" y="170" width="80" height="30" as="geometry" />
        </mxCell>
        <mxCell id="l2tz1g2ClaedahWEiSHb-33" value="POST/QUERRY" style="edgeStyle=orthogonalEdgeStyle;rounded=0;orthogonalLoop=1;jettySize=auto;html=1;curved=0;" edge="1" parent="1" source="l2tz1g2ClaedahWEiSHb-21" target="l2tz1g2ClaedahWEiSHb-22">
          <mxGeometry relative="1" as="geometry">
            <Array as="points">
              <mxPoint x="460" y="360" />
              <mxPoint x="460" y="360" />
            </Array>
          </mxGeometry>
        </mxCell>
        <mxCell id="l2tz1g2ClaedahWEiSHb-40" value="DISPLAY ANSWER" style="edgeStyle=orthogonalEdgeStyle;rounded=0;orthogonalLoop=1;jettySize=auto;html=1;curved=0;" edge="1" parent="1" source="l2tz1g2ClaedahWEiSHb-21" target="l2tz1g2ClaedahWEiSHb-14">
          <mxGeometry relative="1" as="geometry">
            <Array as="points">
              <mxPoint x="310" y="920" />
              <mxPoint x="310" y="920" />
            </Array>
          </mxGeometry>
        </mxCell>
        <mxCell id="l2tz1g2ClaedahWEiSHb-21" value="FRONTEND" style="shape=umlLifeline;perimeter=lifelinePerimeter;whiteSpace=wrap;html=1;container=1;dropTarget=0;collapsible=0;recursiveResize=0;outlineConnect=0;portConstraint=eastwest;newEdgeStyle={&quot;curved&quot;:0,&quot;rounded&quot;:0};" vertex="1" parent="1">
          <mxGeometry x="320" y="200" width="100" height="930" as="geometry" />
        </mxCell>
        <mxCell id="l2tz1g2ClaedahWEiSHb-34" value="GET CHUNKS" style="edgeStyle=orthogonalEdgeStyle;rounded=0;orthogonalLoop=1;jettySize=auto;html=1;curved=0;" edge="1" parent="1" source="l2tz1g2ClaedahWEiSHb-22" target="l2tz1g2ClaedahWEiSHb-23">
          <mxGeometry relative="1" as="geometry">
            <Array as="points">
              <mxPoint x="620" y="420" />
              <mxPoint x="620" y="420" />
            </Array>
          </mxGeometry>
        </mxCell>
        <mxCell id="l2tz1g2ClaedahWEiSHb-39" value="RETURN RESPONSE" style="edgeStyle=orthogonalEdgeStyle;rounded=0;orthogonalLoop=1;jettySize=auto;html=1;curved=0;" edge="1" parent="1" source="l2tz1g2ClaedahWEiSHb-22" target="l2tz1g2ClaedahWEiSHb-21">
          <mxGeometry relative="1" as="geometry">
            <Array as="points">
              <mxPoint x="460" y="760" />
              <mxPoint x="460" y="760" />
            </Array>
          </mxGeometry>
        </mxCell>
        <mxCell id="l2tz1g2ClaedahWEiSHb-22" value="BACKEND" style="shape=umlLifeline;perimeter=lifelinePerimeter;whiteSpace=wrap;html=1;container=1;dropTarget=0;collapsible=0;recursiveResize=0;outlineConnect=0;portConstraint=eastwest;newEdgeStyle={&quot;curved&quot;:0,&quot;rounded&quot;:0};" vertex="1" parent="1">
          <mxGeometry x="500" y="200" width="100" height="930" as="geometry" />
        </mxCell>
        <mxCell id="l2tz1g2ClaedahWEiSHb-35" style="edgeStyle=orthogonalEdgeStyle;rounded=0;orthogonalLoop=1;jettySize=auto;html=1;curved=0;" edge="1" parent="1" source="l2tz1g2ClaedahWEiSHb-23" target="l2tz1g2ClaedahWEiSHb-22">
          <mxGeometry relative="1" as="geometry">
            <Array as="points">
              <mxPoint x="630" y="490" />
              <mxPoint x="630" y="490" />
            </Array>
          </mxGeometry>
        </mxCell>
        <mxCell id="l2tz1g2ClaedahWEiSHb-37" value="POST/GENERATE" style="edgeStyle=orthogonalEdgeStyle;rounded=0;orthogonalLoop=1;jettySize=auto;html=1;curved=0;" edge="1" parent="1" source="l2tz1g2ClaedahWEiSHb-23" target="l2tz1g2ClaedahWEiSHb-24">
          <mxGeometry relative="1" as="geometry">
            <Array as="points">
              <mxPoint x="810" y="560" />
              <mxPoint x="810" y="560" />
            </Array>
          </mxGeometry>
        </mxCell>
        <mxCell id="l2tz1g2ClaedahWEiSHb-23" value="RETRIEVER" style="shape=umlLifeline;perimeter=lifelinePerimeter;whiteSpace=wrap;html=1;container=1;dropTarget=0;collapsible=0;recursiveResize=0;outlineConnect=0;portConstraint=eastwest;newEdgeStyle={&quot;curved&quot;:0,&quot;rounded&quot;:0};" vertex="1" parent="1">
          <mxGeometry x="680" y="200" width="100" height="930" as="geometry" />
        </mxCell>
        <mxCell id="l2tz1g2ClaedahWEiSHb-38" value="RESPONSE" style="edgeStyle=orthogonalEdgeStyle;rounded=0;orthogonalLoop=1;jettySize=auto;html=1;curved=0;" edge="1" parent="1" source="l2tz1g2ClaedahWEiSHb-24" target="l2tz1g2ClaedahWEiSHb-23">
          <mxGeometry relative="1" as="geometry">
            <Array as="points">
              <mxPoint x="810" y="640" />
              <mxPoint x="810" y="640" />
            </Array>
          </mxGeometry>
        </mxCell>
        <mxCell id="l2tz1g2ClaedahWEiSHb-24" value="LLM API" style="shape=umlLifeline;perimeter=lifelinePerimeter;whiteSpace=wrap;html=1;container=1;dropTarget=0;collapsible=0;recursiveResize=0;outlineConnect=0;portConstraint=eastwest;newEdgeStyle={&quot;curved&quot;:0,&quot;rounded&quot;:0};" vertex="1" parent="1">
          <mxGeometry x="860" y="200" width="100" height="930" as="geometry" />
        </mxCell>
      </root>
    </mxGraphModel>
  </diagram>
</mxfile>
